<svg xmlns="http://www.w3.org/2000/svg" width="64" height="64" viewBox="0 0 64 64" fill="none">
  <defs>
    <linearGradient id="g" x1="0" y1="0" x2="64" y2="64" gradientUnits="userSpaceOnUse">
      <stop offset="0" stop-color="#a07830"/>
      <stop offset="0.4" stop-color="#c9a84c"/>
      <stop offset="0.65" stop-color="#e8c97a"/>
      <stop offset="1" stop-color="#c9a84c"/>
    </linearGradient>
  </defs>
  <rect width="64" height="64" rx="14" fill="#1c1132"/>
  <!-- Pylône gauche -->
  <path d="M5 32 L14 18 L23 32 L14 46 Z M14 18 L14 46 M5 32 L23 32" stroke="url(#g)" stroke-width="1.5" stroke-linejoin="round"/>
  <!-- Pylône droit -->
  <path d="M41 32 L50 18 L59 32 L50 46 Z M50 18 L50 46 M41 32 L59 32" stroke="url(#g)" stroke-width="1.5" stroke-linejoin="round"/>
  <!-- Tablier -->
  <path d="M18 29 C25 26.5 39 26.5 46 29" stroke="url(#g)" stroke-width="1.5" stroke-linecap="round"/>
  <path d="M18 32.5 C25 30 39 30 46 32.5" stroke="url(#g)" stroke-width="1.5" stroke-linecap="round"/>
  <!-- Arche -->
  <path d="M20 46 C25 33 39 33 44 46" stroke="url(#g)" stroke-width="1.6" stroke-linecap="round"/>
  <!-- Suspentes -->
  <path d="M26 31.5 L26 38 M32 31 L32 35.5 M38 31.5 L38 38" stroke="url(#g)" stroke-width="1.2" stroke-linecap="round"/>
  <!-- Étoile -->
  <path d="M32 24 Q32.5 26.5 35 27 Q32.5 27.5 32 30 Q31.5 27.5 29 27 Q31.5 26.5 32 24 Z" fill="#f5e6c4"/>
</svg>
